<?xml version="1.0" encoding="UTF-8" standalone="no"?>
<!-- Created with Inkscape (http://www.inkscape.org/) -->

<svg
   xmlns:dc="http://purl.org/dc/elements/1.1/"
   xmlns:cc="http://creativecommons.org/ns#"
   xmlns:rdf="http://www.w3.org/1999/02/22-rdf-syntax-ns#"
   xmlns:svg="http://www.w3.org/2000/svg"
   xmlns="http://www.w3.org/2000/svg"
   xmlns:sodipodi="http://sodipodi.sourceforge.net/DTD/sodipodi-0.dtd"
   xmlns:inkscape="http://www.inkscape.org/namespaces/inkscape"
   height="89.46624"
   id="svg1"
   inkscape:version="0.48.4 r9939"
   sodipodi:docname="Anonymous_Chess_symbols_set_4-filled.svg"
   sodipodi:version="0.32"
   width="83.398552"
   inkscape:output_extension="org.inkscape.output.svg.inkscape"
   version="1.0"
   inkscape:export-filename="C:\joanna\Gfx\drawings_vector\admin\thumbs\Igor Krizanovskij\chess_set_symbols_igor_k_01_ok.png"
   inkscape:export-xdpi="51.457458"
   inkscape:export-ydpi="51.457458">
  <metadata
     id="metadata3">
    <rdf:RDF>
      <cc:Work
         rdf:about="">
        <dc:title />
        <dc:description />
        <dc:subject>
          <rdf:Bag>
            <rdf:li />
            <rdf:li>game</rdf:li>
            <rdf:li>chess</rdf:li>
            <rdf:li>symbols</rdf:li>
            <rdf:li>board</rdf:li>
            <rdf:li>recreation</rdf:li>
            <rdf:li>fonts</rdf:li>
          </rdf:Bag>
        </dc:subject>
        <dc:publisher>
          <cc:Agent
             rdf:about="http://www.openclipart.org">
            <dc:title>Igor Krizanovskij</dc:title>
          </cc:Agent>
        </dc:publisher>
        <dc:creator>
          <cc:Agent>
            <dc:title>Igor Krizanovskij</dc:title>
          </cc:Agent>
        </dc:creator>
        <dc:rights>
          <cc:Agent>
            <dc:title>Igor Krizanovskij</dc:title>
          </cc:Agent>
        </dc:rights>
        <dc:date />
        <dc:format>image/svg+xml</dc:format>
        <dc:type
           rdf:resource="http://purl.org/dc/dcmitype/StillImage" />
        <cc:license
           rdf:resource="http://web.resource.org/cc/PublicDomain" />
        <dc:language>en</dc:language>
      </cc:Work>
      <cc:License
         rdf:about="http://web.resource.org/cc/PublicDomain">
        <cc:permits
           rdf:resource="http://web.resource.org/cc/Reproduction" />
        <cc:permits
           rdf:resource="http://web.resource.org/cc/Distribution" />
        <cc:permits
           rdf:resource="http://web.resource.org/cc/DerivativeWorks" />
      </cc:License>
    </rdf:RDF>
  </metadata>
  <defs
     id="defs3">
    <inkscape:perspective
       sodipodi:type="inkscape:persp3d"
       inkscape:vp_x="0 : 187.5 : 1"
       inkscape:vp_y="0 : 1000 : 0"
       inkscape:vp_z="1052.3622 : 187.5 : 1"
       inkscape:persp3d-origin="526.18109 : 125 : 1"
       id="perspective20" />
  </defs>
  <sodipodi:namedview
     bordercolor="#666666"
     borderopacity="1.0"
     id="base"
     inkscape:current-layer="layer2"
     inkscape:cx="-31.715699"
     inkscape:cy="33.302029"
     inkscape:pageopacity="0.0"
     inkscape:pageshadow="2"
     inkscape:window-height="778"
     inkscape:window-width="1270"
     inkscape:window-x="2"
     inkscape:window-y="0"
     inkscape:zoom="3.2023253"
     pagecolor="#ffffff"
     showgrid="false"
     inkscape:window-maximized="0" />
  <g
     inkscape:groupmode="layer"
     id="layer2"
     inkscape:label="inner"
     style="display:inline">
    <path
       style="fill:#ffffff;fill-opacity:1;stroke:none"
       d="M 40.59375,2.3125 C 35.11105,2.156995 33.17662,8.8583566 36.40625,12.65625 38.302428,15.556393 40.114308,17.82133 35.375,17.375 26.508438,21.369983 16.146444,30.044979 19,40.9375 c 1.025984,4.968874 6.023451,8.512273 7.15625,12.84375 0.141407,3.368807 -3.741508,7.687621 -1.84375,10.6875 2.485768,2.779682 8.717359,0.48555 8.4375,4.96875 -6.689496,5.196558 -16.203211,3.34138 -24.09375,3.9375 -3.352054,1.30006 -8.25315963,5.466445 -3.97199,8.61953 1.7182838,1.72241 2.9684942,5.996121 5.62824,3.38047 10.414878,-2.661544 23.086271,-0.721582 31.375,-9.03125 8.904167,8.50763 22.083418,5.394817 32.625,9.71875 2.325919,1.2086 3.71284,-3.848413 5.25,-5.15625 2.949658,-2.969999 -2.235103,-6.651921 -5.09375,-7.5625 -7.889268,-0.689883 -17.507725,1.397673 -24.0625,-4.125 0.911172,-4.382712 8.368222,-1.860634 9.28125,-6.0625 -0.821239,-4.600296 -4.668641,-10.349435 0.25,-14.03125 5.668967,-6.305182 6.9685,-16.596111 0.4375,-22.78125 -3.753735,-4.138515 -8.784564,-7.572384 -13.9375,-9.8125 -2.013309,-2.656414 3.31612,-5.915054 1.78125,-9.5 -0.35162,-3.8172667 -4.252224,-5.2879241 -7.625,-4.71875 z"
       id="path3765"
       inkscape:connector-curvature="0" />
  </g>
  <g
     id="layer1"
     inkscape:groupmode="layer"
     inkscape:label="outer"
     transform="translate(-571.36243,-212.65269)"
     style="display:inline">
    <path
       d="m 613.06171,264.16357 c -6.02477,0 -10.71541,-0.25821 -14.0719,-0.7746 0.60235,1.20492 0.90359,2.23772 0.90369,3.09838 -10e-5,1.29102 -0.2583,2.36684 -0.77458,3.22751 2.49582,-0.7746 7.14341,-1.16191 13.94279,-1.16191 6.79914,0 11.44675,0.38731 13.94277,1.16191 -0.5165,-0.86067 -0.77469,-1.93649 -0.77459,-3.22751 -10e-5,-1.03278 0.25809,-2.06558 0.77459,-3.09838 -4.04521,0.51639 -8.69282,0.7746 -13.94277,0.7746 m 0,-46.73416 c -1.80751,0 -3.05548,0.81761 -3.7439,2.45288 -0.17225,0.43033 -0.2583,0.86068 -0.2582,1.291 -10e-5,1.89347 0.94662,3.14144 2.84019,3.7439 0.34416,0.0861 0.73147,0.12911 1.16191,0.12911 1.9794,0 3.27043,-0.90372 3.87299,-2.7111 0.086,-0.34428 0.12898,-0.73158 0.12911,-1.16191 -1.3e-4,-1.72132 -0.86078,-2.88323 -2.58201,-3.48569 -0.5165,-0.17214 -0.98988,-0.25819 -1.42009,-0.25819 m 0,54.86744 c -3.27065,0 -7.48791,0.30124 -12.6518,0.9037 -1.46313,0.17215 -2.3238,0.98977 -2.58199,2.4529 0,1.0328 2.36671,1.6783 7.10048,1.9365 -0.43044,-0.0861 -0.2583,-0.12911 0.51641,-0.12911 0.77448,0 3.31345,0 7.6169,0 10.06967,0 15.10457,-0.60246 15.10469,-1.80739 -1.2e-4,-1.97952 -2.49605,-3.05536 -7.4878,-3.22749 l -3.7439,0 c -1.11897,0 -2.0657,-0.043 -2.84021,-0.12911 l -1.03278,0 m -0.12911,-11.87718 c 9.63936,0 15.53492,-0.90369 17.6867,-2.71111 1.46301,-1.11887 2.53885,-4.08816 3.22749,-8.90789 -0.43044,-4.30333 -3.22761,-8.43453 -8.39151,-12.3936 -4.81982,-3.78691 -9.03709,-5.89555 -12.65178,-6.32589 -3.35671,0.43034 -7.44486,2.53898 -12.2645,6.32589 -5.07792,3.95907 -7.83205,8.09027 -8.26239,12.3936 0.60248,4.47546 1.54921,7.31567 2.84021,8.52059 0.34426,0.34427 0.73157,0.6455 1.16189,0.90369 2.15168,1.46315 7.70286,2.19472 16.65389,2.19472 m -2.19469,-6.3259 0,-5.6804 -4.3894,0 0,-5.0349 4.3894,0 0,-5.55129 4.6476,0 0,5.55129 4.38938,0 0,5.0349 -4.38938,0 0,5.6804 -4.6476,0 m 2.06559,26.33637 c -0.77469,0 -3.05548,1.50618 -6.84229,4.51851 -2.66817,1.80739 -6.9714,2.88323 -12.90999,3.22749 -4.30333,0 -7.746,0.21516 -10.328,0.6455 -2.75411,0.60246 -4.13119,1.76437 -4.13119,3.48569 0.2582,1.72134 1.16189,2.58201 2.7111,2.58201 l 6.8423,-1.0328 c 4.47544,0 9.16608,-0.60246 14.07187,-1.80741 5.59422,-1.46312 9.20902,-3.78692 10.84441,-6.97139 2.32368,4.56155 8.34834,7.31566 18.07398,8.26239 -10e-5,0 1.11875,0.17215 3.3566,0.51641 2.23763,0 3.3565,0 3.3566,0 l 6.97139,1.0328 c 1.54909,0 2.45278,-0.86067 2.71108,-2.58201 -10e-5,-1.72132 -1.37717,-2.88323 -4.13118,-3.48569 l -13.81368,-1.0328 c -4.38951,-0.34427 -8.60677,-2.0656 -12.6518,-5.16398 -1.80751,-1.46315 -3.18458,-2.19472 -4.1312,-2.19472 m 0.25821,11.23169 c -3.3567,3.3566 -8.43464,5.4222 -15.23379,6.19681 -2.75414,0.25819 -7.57386,0.86066 -14.45921,1.80738 -1.80738,0.34428 -2.84018,1.16191 -3.09838,2.45291 -1.63526,-0.43033 -4.04514,-3.0984 -7.22959,-8.00419 -0.7746,-1.20493 -1.33403,-2.02257 -1.6783,-2.45291 2.84019,-5.42218 6.36892,-8.13328 10.58619,-8.13328 l 7.6169,0.3873 c 3.52873,0 7.65991,-0.81764 12.39357,-2.4529 -6.11071,-0.77459 -9.16608,-2.62503 -9.16608,-5.5513 l 2.58199,-9.81158 c 0,-0.0861 0,-0.17215 0,-0.25822 -5.16398,-5.68037 -7.74599,-11.01651 -7.74599,-16.00837 0,-5.6804 2.79716,-10.84439 8.39149,-15.49199 4.90569,-4.13121 8.52048,-6.3259 10.84439,-6.58411 -1.89356,-2.32378 -2.8403,-4.73364 -2.84019,-7.22959 -1.1e-4,-3.95907 1.97943,-6.45499 5.9386,-7.48779 0.94662,-0.25809 1.97942,-0.3872 3.0984,-0.38731 4.21715,1.1e-4 6.97127,1.59224 8.26239,4.77672 l 0.6455,2.7111 0,0.38728 c -10e-5,2.66806 -0.90382,5.07794 -2.7111,7.22959 2.32369,0.25821 5.98153,2.49594 10.9735,6.7132 5.50814,4.56152 8.26228,9.6825 8.26239,15.3629 -1.1e-4,4.81972 -2.58212,10.15585 -7.746,16.00837 -10e-5,1.20495 0.43023,2.92628 1.29099,5.16401 0.86056,2.75414 1.2909,4.3894 1.291,4.90579 -10e-5,2.92627 -3.05548,4.77671 -9.16609,5.5513 4.64749,1.63526 8.77868,2.4529 12.3936,2.4529 l 7.61689,-0.3873 c 4.21716,0 7.74589,2.7111 10.5862,8.13328 l -4.3894,6.7132 c -1.46325,1.89346 -2.96941,3.14144 -4.5185,3.7439 -0.34438,-1.72133 -2.84031,-2.79717 -7.4878,-3.22749 0.60235,0 -0.68864,-0.12911 -3.87299,-0.3873 -10.75844,-1.03281 -17.90196,-3.31356 -21.43058,-6.84231"
       id="path1700"
       style="font-size:12px;font-style:normal;font-weight:normal;fill:#000000;fill-opacity:1;stroke:none;font-family:Bitstream Vera Sans"
       inkscape:connector-curvature="0" />
  </g>
</svg>
