<?xml version="1.0" encoding="UTF-8" standalone="no"?>
<!-- Created with Inkscape (http://www.inkscape.org/) -->

<svg
   xmlns:dc="http://purl.org/dc/elements/1.1/"
   xmlns:cc="http://creativecommons.org/ns#"
   xmlns:rdf="http://www.w3.org/1999/02/22-rdf-syntax-ns#"
   xmlns:svg="http://www.w3.org/2000/svg"
   xmlns="http://www.w3.org/2000/svg"
   xmlns:sodipodi="http://sodipodi.sourceforge.net/DTD/sodipodi-0.dtd"
   xmlns:inkscape="http://www.inkscape.org/namespaces/inkscape"
   height="83.398521"
   id="svg1"
   inkscape:version="0.48.4 r9939"
   sodipodi:docname="Anonymous_Chess_symbols_set_2-filled.svg"
   sodipodi:version="0.32"
   width="89.466225"
   inkscape:output_extension="org.inkscape.output.svg.inkscape"
   version="1.0"
   inkscape:export-filename="C:\joanna\Gfx\drawings_vector\admin\thumbs\Igor Krizanovskij\chess_set_symbols_igor_k_01_ok.png"
   inkscape:export-xdpi="51.457458"
   inkscape:export-ydpi="51.457458">
  <metadata
     id="metadata3">
    <rdf:RDF>
      <cc:Work
         rdf:about="">
        <dc:title />
        <dc:description />
        <dc:subject>
          <rdf:Bag>
            <rdf:li />
            <rdf:li>game</rdf:li>
            <rdf:li>chess</rdf:li>
            <rdf:li>symbols</rdf:li>
            <rdf:li>board</rdf:li>
            <rdf:li>recreation</rdf:li>
            <rdf:li>fonts</rdf:li>
          </rdf:Bag>
        </dc:subject>
        <dc:publisher>
          <cc:Agent
             rdf:about="http://www.openclipart.org">
            <dc:title>Igor Krizanovskij</dc:title>
          </cc:Agent>
        </dc:publisher>
        <dc:creator>
          <cc:Agent>
            <dc:title>Igor Krizanovskij</dc:title>
          </cc:Agent>
        </dc:creator>
        <dc:rights>
          <cc:Agent>
            <dc:title>Igor Krizanovskij</dc:title>
          </cc:Agent>
        </dc:rights>
        <dc:date />
        <dc:format>image/svg+xml</dc:format>
        <dc:type
           rdf:resource="http://purl.org/dc/dcmitype/StillImage" />
        <cc:license
           rdf:resource="http://web.resource.org/cc/PublicDomain" />
        <dc:language>en</dc:language>
      </cc:Work>
      <cc:License
         rdf:about="http://web.resource.org/cc/PublicDomain">
        <cc:permits
           rdf:resource="http://web.resource.org/cc/Reproduction" />
        <cc:permits
           rdf:resource="http://web.resource.org/cc/Distribution" />
        <cc:permits
           rdf:resource="http://web.resource.org/cc/DerivativeWorks" />
      </cc:License>
    </rdf:RDF>
  </metadata>
  <defs
     id="defs3">
    <inkscape:perspective
       sodipodi:type="inkscape:persp3d"
       inkscape:vp_x="0 : 187.5 : 1"
       inkscape:vp_y="0 : 1000 : 0"
       inkscape:vp_z="1052.3622 : 187.5 : 1"
       inkscape:persp3d-origin="526.18109 : 125 : 1"
       id="perspective20" />
  </defs>
  <sodipodi:namedview
     bordercolor="#666666"
     borderopacity="1.0"
     id="base"
     inkscape:current-layer="layer2"
     inkscape:cx="21.150807"
     inkscape:cy="35.382781"
     inkscape:pageopacity="0.0"
     inkscape:pageshadow="2"
     inkscape:window-height="778"
     inkscape:window-width="1270"
     inkscape:window-x="2"
     inkscape:window-y="0"
     inkscape:zoom="4.7634236"
     pagecolor="#ffffff"
     showgrid="false"
     inkscape:window-maximized="0" />
  <g
     inkscape:groupmode="layer"
     id="layer2"
     inkscape:label="inner"
     style="display:inline">
    <path
       style="fill:#ffffff;fill-opacity:1;stroke:none"
       d="M 44.40625,2.84375 C 40.476633,3.1051691 39.431656,7.7021394 41.467558,10.669059 44.480259,20.106816 42.363337,30.746132 39.625,39.9375 36.027758,43.447735 33.683599,37.151528 32.830693,34.359615 29.276515,26.62427 26.990789,18.160854 28.40625,9.625 27.372326,3.5407775 17.118782,6.479469 19.84375,12.4375 c 7.512692,5.985945 5.48112,16.345455 5.0625,24.78125 -0.03957,4.029266 -5.036401,4.086089 -6.625,0.8125 C 13.298021,32.925319 9.7633412,26.079846 11.59375,18.8125 11.771218,13.558464 3.5223709,13.205166 2.90625,18.15625 1.6109169,23.486496 9.7540172,23.745963 8.875,28.9375 c 1.630258,7.598956 2.271109,15.849504 5.5,22.875 3.98401,4.966835 11.532393,10.949967 7,18.0625 -1.170211,2.718438 -4.267,9.034644 1.125,8.90625 15.06992,2.375559 30.917363,2.743741 45.8125,-0.25 3.897946,-0.831449 0.557603,-6.197968 -0.204939,-8.419778 C 63.993098,64.186964 69.071626,58.046799 73.21875,54 c 5.593398,-6.192042 4.84148,-15.457891 7.0625,-23.1875 -0.322096,-3.882168 1.787809,-6.583569 4.96875,-8.40625 4.032248,-3.581901 -1.26394,-10.423654 -5.5625,-7 -4.171838,3.464145 0.519969,9.692062 -2.625,13.90625 -2.325985,4.744654 -5.781943,8.70783 -9.53125,12.3125 -5.494148,-3.160399 -2.608557,-10.900166 -3.385846,-16.312292 -0.56808,-5.403466 3.096432,-9.576486 5.510846,-13.843958 1.148757,-4.9588742 -6.247196,-7.3820325 -8.375,-2.875 -0.49074,5.502782 1.123719,11.455651 -1.375,16.875 C 57.3864,30.831062 56.975541,38.395622 51.625,41.65625 47.379332,39.214759 48.744353,32.717074 47.25,28.5625 45.597259,21.30901 46.589444,13.851992 49,6.9375 48.823298,4.5203466 47.040207,2.3926614 44.40625,2.84375 z"
       id="path3757"
       inkscape:connector-curvature="0" />
  </g>
  <g
     id="layer1"
     inkscape:groupmode="layer"
     inkscape:label="outer"
     transform="translate(-232.78988,-215.75111)"
     style="display:inline">
    <path
       d="m 274.61825,270.10217 5.6804,0 c 1.29089,0 2.84008,0.043 4.64759,0.12908 l 12.78089,0.77461 0.12911,0 c 1.54909,0 2.32367,-0.21518 2.32379,-0.6455 l 0,-0.51641 c -1.2e-4,-2.58199 -5.72353,-4.26029 -17.1703,-5.03488 -2.06571,-0.17215 -3.87309,-0.25821 -5.42218,-0.25821 -8.43464,0 -14.93256,0.86067 -19.49409,2.58201 -2.0656,0.77458 -3.0984,1.67828 -3.0984,2.71108 l 0,0.51641 c 0,0.43032 0.77461,0.6455 2.3238,0.6455 l 17.29939,-0.90369 m 23.88348,5.80948 c -6.79937,-0.86066 -13.77077,-1.291 -20.91418,-1.291 -7.48791,0 -14.45921,0.43034 -20.91419,1.291 1.0328,0.86066 1.54919,2.53896 1.54919,5.03491 0,1.63526 -0.25819,2.62502 -0.77458,2.96929 5.16398,-0.94673 11.87709,-1.4201 20.13958,-1.4201 8.26228,0 14.97547,0.47337 20.13958,1.4201 -0.51651,-0.34427 -0.77471,-1.33403 -0.77461,-2.96929 -10e-5,-2.49595 0.51631,-4.17425 1.54921,-5.03491 m -20.91418,11.10259 c -4.38951,0 -9.29531,0.21517 -14.7174,0.64551 -4.21726,0.34425 -6.3259,1.33404 -6.3259,2.9693 0,2.15165 7.01443,3.22749 21.0433,3.22749 14.02874,0 21.04317,-1.07584 21.04327,-3.22749 -1e-4,-0.68854 -0.55953,-1.33404 -1.6783,-1.93651 -3.27063,-1.11886 -9.72563,-1.6783 -19.36497,-1.6783 m 0,-67.51925 c -2.15179,0 -3.22762,1.0328 -3.22749,3.0984 -1.3e-4,2.23773 1.0757,3.3566 3.22749,3.3566 2.06548,0 3.09828,-1.11887 3.09838,-3.3566 -10e-5,-2.0656 -1.0329,-3.0984 -3.09838,-3.0984 m 0,-3.74388 c 3.09828,0 5.24995,1.42008 6.45498,4.26029 l 0.6455,2.58199 0,0.38731 c -1.1e-4,0.51639 -0.34437,1.59223 -1.0328,3.22749 -1.20503,3.52874 -1.80749,6.58409 -1.80739,9.16608 -1e-4,4.21728 0.94663,10.45711 2.84019,18.7195 4.64749,-9.81158 6.9713,-17.21332 6.9714,-22.20519 l -0.77459,-5.55129 c -1.3e-4,-3.01233 1.33391,-5.164 4.0021,-6.455 0.9466,-0.51639 1.9794,-0.77458 3.09838,-0.77458 3.0983,0 5.29299,1.37704 6.58409,4.13118 0.51631,1.0328 0.77451,2.0656 0.77461,3.0984 -10e-5,2.23773 -0.77471,4.0021 -2.3238,5.2931 -2.3239,2.3238 -3.52885,6.11072 -3.61479,11.36078 -1e-4,2.23775 0.21505,5.85254 0.6455,10.8444 5.59422,-5.76646 8.39137,-10.4571 8.39149,-14.07189 l -0.64549,-5.03491 c -1.3e-4,-2.84019 1.29087,-4.94882 3.87299,-6.32587 1.03269,-0.60248 2.10851,-0.90372 3.2275,-0.90372 2.92615,0 5.12084,1.33404 6.58408,4.0021 l 0.77461,2.45291 0,0.77458 c -10e-5,3.52875 -1.97964,6.19682 -5.93859,8.0042 -0.17225,3.70087 -1.59235,10.97349 -4.26029,21.81789 -0.17225,0.51641 -0.30136,0.98976 -0.38731,1.4201 -1.1e-4,1.20493 -1.37717,3.27053 -4.13121,6.19679 -3.70097,3.70087 -5.55139,6.58409 -5.55129,8.6497 -10e-5,0.94672 1.0327,3.48571 3.0984,7.61689 0.34418,0.77461 0.51629,1.93649 0.51639,3.48571 l 0,0.90369 c -0.0862,0.25819 -0.12921,0.55943 -0.12908,0.90369 l 0,0.12911 0.12908,0.12909 c -1e-4,3.0984 -8.30553,4.81974 -24.91628,5.164 -1.11895,0 -2.19479,0 -3.22749,0 l -5.42218,-0.1291 -0.12911,0 c -8.09037,-0.2582 -14.24403,-0.94673 -18.46128,-2.06561 -2.66807,-0.77458 -4.0021,-1.76434 -4.0021,-2.96929 0.0861,-0.0861 0.0861,-0.60246 0,-1.54919 -0.0861,-0.17213 -0.0861,-0.34427 0,-0.51639 0,-1.97954 0.6455,-4.2603 1.9365,-6.84231 1.0328,-2.06558 1.54919,-3.48568 1.54919,-4.26029 0,-1.37708 -0.73156,-3.01234 -2.19469,-4.9058 l -6.32591,-7.22959 c -0.68852,-0.94673 -1.0328,-1.85045 -1.0328,-2.7111 -2.66806,-10.93046 -4.17421,-18.03094 -4.51849,-21.30149 -0.0861,-0.68854 -0.1291,-1.33404 -0.1291,-1.9365 -3.95906,-1.80738 -5.93859,-4.47545 -5.93859,-8.0042 0,-2.84019 1.29099,-4.94882 3.87298,-6.32587 1.11887,-0.60248 2.23775,-0.90372 3.3566,-0.90372 3.01234,0 5.16401,1.37707 6.45502,4.13121 0.51639,0.94673 0.77458,1.97953 0.77458,3.09838 l -0.6455,5.03491 c 0,3.78693 2.75413,8.47756 8.26239,14.07189 0.43034,-3.78694 0.6455,-7.40173 0.6455,-10.8444 0,-4.73365 -0.55943,-7.8751 -1.67828,-9.42429 -0.43034,-0.60246 -1.07584,-1.29099 -1.93651,-2.0656 -1.5492,-1.0328 -2.3238,-2.75412 -2.3238,-5.16399 0,-3.01233 1.4201,-5.20702 4.26031,-6.58408 0.94673,-0.43035 1.97954,-0.6455 3.09838,-0.6455 3.01234,0 5.16401,1.37704 6.45501,4.13118 0.51628,0.94673 0.77448,1.97954 0.77458,3.0984 l -0.77458,5.42219 0,0.1291 c 0,4.90579 2.32367,12.30754 6.9714,22.20519 1.80728,-7.83205 2.71098,-14.0719 2.71108,-18.7195 -10e-5,-3.44265 -0.6456,-6.71318 -1.9365,-9.81158 -0.51649,-1.20493 -0.7747,-2.0656 -0.77458,-2.58199 -1.2e-4,-3.01234 1.37694,-5.16399 4.13118,-6.45501 0.94662,-0.51639 1.97942,-0.77458 3.09841,-0.77458 m 37.30987,15.87928 c -1.37718,0 -2.36694,0.68854 -2.9693,2.0656 -0.0862,0.34427 -0.12922,0.68852 -0.12911,1.03278 -1.1e-4,1.72134 0.77449,2.79718 2.3238,3.22752 0.25809,0.0861 0.51631,0.12909 0.77461,0.12909 2.15154,0 3.22738,-1.11886 3.22749,-3.35661 -1.1e-4,-2.06558 -1.07595,-3.09838 -3.22749,-3.09838 m -16.9121,-8.26239 c -1.46324,0 -2.453,0.73157 -2.96929,2.19469 l -0.12909,1.0328 c -1.2e-4,1.54919 0.73144,2.58199 2.19469,3.0984 0.25809,0.0861 0.55932,0.12909 0.90369,0.12909 2.23763,0 3.3565,-1.07582 3.3566,-3.22749 -1e-4,-2.15165 -1.11897,-3.22749 -3.3566,-3.22749 m -41.05377,0 c -2.15165,0 -3.22749,1.07584 -3.22749,3.22749 0,2.15167 1.07584,3.22749 3.22749,3.22749 2.06561,0 3.09841,-1.07582 3.09841,-3.22749 0,-2.15165 -1.0328,-3.22749 -3.09841,-3.22749 m -16.91209,8.26239 c -2.15165,0 -3.22749,1.0328 -3.22749,3.09838 0,2.23775 1.07584,3.35661 3.22749,3.35661 2.06561,0 3.09841,-1.11886 3.09841,-3.35661 0,-1.46311 -0.73157,-2.45288 -2.19469,-2.96929 -0.25822,-0.0861 -0.55944,-0.12909 -0.90372,-0.12909 m 37.56809,8.2624 c -1.20505,7.57385 -2.75425,13.03907 -4.6476,16.39567 l -1.93649,3.09841 0,0.12911 c -0.25832,-0.25822 -1.37718,-1.54922 -3.3566,-3.87302 -2.49605,-2.92626 -5.12098,-8.47755 -7.8751,-16.65387 0.17213,1.20492 0.2582,2.45289 0.2582,3.74388 0,4.04514 -0.73157,10.28497 -2.19471,18.7195 -4.64758,-2.75414 -9.16608,-7.14354 -13.55549,-13.16821 1.46314,7.40174 2.58202,12.2645 3.3566,14.5883 0.51641,1.72133 1.16191,2.7111 1.9365,2.96929 7.05746,-4.04511 16.39559,-6.06768 28.01469,-6.06768 11.70494,0 21.04317,2.02257 28.01466,6.06768 1.54909,-0.51639 3.27043,-6.36891 5.16401,-17.55759 -4.47557,6.19681 -8.95105,10.58622 -13.42639,13.16821 -1.46325,-7.48781 -2.1948,-13.38336 -2.19469,-17.68669 -1.1e-4,-1.11886 0.0859,-2.7111 0.25819,-4.77669 -1.72144,5.16399 -3.70097,9.76854 -5.93859,13.81368 -1.20505,1.80739 -2.53909,3.52873 -4.00211,5.16399 -0.68863,0.68853 -1.11897,1.20494 -1.29099,1.54922 l -2.84021,-5.03491 c -0.0862,-0.34426 -0.21526,-0.68853 -0.38728,-1.0328 -0.68864,-1.89346 -1.80751,-6.41196 -3.3566,-13.55548"
       id="path1715"
       style="font-size:12px;font-style:normal;font-weight:normal;fill:#000000;fill-opacity:1;stroke:none;font-family:Bitstream Vera Sans"
       inkscape:connector-curvature="0" />
  </g>
</svg>
