<?xml version="1.0" encoding="UTF-8" standalone="no"?>
<!-- Created with Inkscape (http://www.inkscape.org/) -->

<svg
   xmlns:dc="http://purl.org/dc/elements/1.1/"
   xmlns:cc="http://creativecommons.org/ns#"
   xmlns:rdf="http://www.w3.org/1999/02/22-rdf-syntax-ns#"
   xmlns:svg="http://www.w3.org/2000/svg"
   xmlns="http://www.w3.org/2000/svg"
   xmlns:sodipodi="http://sodipodi.sourceforge.net/DTD/sodipodi-0.dtd"
   xmlns:inkscape="http://www.inkscape.org/namespaces/inkscape"
   height="75.779999"
   id="svg1"
   inkscape:version="0.48.4 r9939"
   sodipodi:docname="Anonymous_Chess_symbols_set_9-filled.svg"
   sodipodi:version="0.32"
   width="64.807999"
   inkscape:output_extension="org.inkscape.output.svg.inkscape"
   version="1.0"
   inkscape:export-filename="C:\joanna\Gfx\drawings_vector\admin\thumbs\Igor Krizanovskij\chess_set_symbols_igor_k_01_ok.png"
   inkscape:export-xdpi="51.457458"
   inkscape:export-ydpi="51.457458">
  <metadata
     id="metadata3">
    <rdf:RDF>
      <cc:Work
         rdf:about="">
        <dc:title></dc:title>
        <dc:description />
        <dc:subject>
          <rdf:Bag>
            <rdf:li />
            <rdf:li>game</rdf:li>
            <rdf:li>chess</rdf:li>
            <rdf:li>symbols</rdf:li>
            <rdf:li>board</rdf:li>
            <rdf:li>recreation</rdf:li>
            <rdf:li>fonts</rdf:li>
          </rdf:Bag>
        </dc:subject>
        <dc:publisher>
          <cc:Agent
             rdf:about="http://www.openclipart.org">
            <dc:title>Igor Krizanovskij</dc:title>
          </cc:Agent>
        </dc:publisher>
        <dc:creator>
          <cc:Agent>
            <dc:title>Igor Krizanovskij</dc:title>
          </cc:Agent>
        </dc:creator>
        <dc:rights>
          <cc:Agent>
            <dc:title>Igor Krizanovskij</dc:title>
          </cc:Agent>
        </dc:rights>
        <dc:date />
        <dc:format>image/svg+xml</dc:format>
        <dc:type
           rdf:resource="http://purl.org/dc/dcmitype/StillImage" />
        <cc:license
           rdf:resource="http://web.resource.org/cc/PublicDomain" />
        <dc:language>en</dc:language>
      </cc:Work>
      <cc:License
         rdf:about="http://web.resource.org/cc/PublicDomain">
        <cc:permits
           rdf:resource="http://web.resource.org/cc/Reproduction" />
        <cc:permits
           rdf:resource="http://web.resource.org/cc/Distribution" />
        <cc:permits
           rdf:resource="http://web.resource.org/cc/DerivativeWorks" />
      </cc:License>
    </rdf:RDF>
  </metadata>
  <defs
     id="defs3">
    <inkscape:perspective
       sodipodi:type="inkscape:persp3d"
       inkscape:vp_x="0 : 187.5 : 1"
       inkscape:vp_y="0 : 1000 : 0"
       inkscape:vp_z="1052.3622 : 187.5 : 1"
       inkscape:persp3d-origin="526.18109 : 125 : 1"
       id="perspective20" />
  </defs>
  <sodipodi:namedview
     bordercolor="#666666"
     borderopacity="1.0"
     id="base"
     inkscape:current-layer="layer2"
     inkscape:cx="38.846098"
     inkscape:cy="37.507262"
     inkscape:pageopacity="0.0"
     inkscape:pageshadow="2"
     inkscape:window-height="778"
     inkscape:window-width="1270"
     inkscape:window-x="2"
     inkscape:window-y="0"
     inkscape:zoom="6.9772452"
     pagecolor="#ffffff"
     showgrid="false"
     inkscape:window-maximized="0" />
  <g
     inkscape:groupmode="layer"
     id="layer2"
     inkscape:label="inner">
    <path
       style="fill:#ffffff;fill-opacity:1;stroke:none"
       d="M 8.9375,3.78125 C 4.4563284,4.3466491 5.1433512,11.324979 6.96875,14.375 c 3.54671,3.561324 9.286663,5.708723 10.15625,11.40625 1.276911,7.022392 -0.41641,14.265283 0.375,21.40625 1.01354,8.834638 -8.5845779,12.00088 -12.71875,18.34375 -2.5446181,2.728134 -0.7734307,7.088357 3.125,6.375 C 25.36231,71.094379 43.331195,72.164783 60.5,71.34375 62.931987,64.199964 54.162439,60.517662 50.5625,56 44.812786,50.711663 48.539676,42.707427 47.496788,36.063094 47.480838,29.978802 46.261518,22.12058 52.65625,18.8125 56.598211,16.359877 60.357404,12.431902 59,7.59375 60.072697,3.4322704 52.854198,3.3996837 51.25,4.8125 50.665196,10.023089 42.795532,11.119538 39.8125,8.5625 38.254959,3.1225328 31.423497,2.9925388 27.34375,4.75 26.127163,8.635822 22.250795,11.947574 18.0625,9.84375 15.107094,8.0645129 13.633681,2.7124943 8.9375,3.78125 z"
       id="path3761"
       inkscape:connector-curvature="0" />
  </g>
  <g
     id="layer1"
     inkscape:groupmode="layer"
     inkscape:label="outer"
     transform="translate(-412.41786,-80.540608)"
     style="display:inline">
    <path
       d="m 414.87565,156.32061 -2.45779,-2.453 0,-9.24576 13.168,-12.95924 0,-25.82 -11.361,-10.095595 0,-11.568787 3.744,-3.639618 10.23059,0 2.32843,2.209788 0,3.24965 4.91557,0 0,-3.24965 2.19907,-2.209788 14.35867,0 2.19908,2.209788 0,3.24965 4.91558,0 0,-3.24965 2.19907,-2.209788 10.35994,-2e-6 3.744,3.63962 0,11.568787 -11.361,10.095595 0,25.82 13.17,12.95924 0,9.24576 -2.453,2.453 -59.904,0 m 15.26894,-27.68707 0,4.41954 29.36413,0 0,-4.41954 -29.36413,0 m 0,-23.39753 0,4.41953 29.36413,0 0,-4.41953 -29.36413,0"
       id="path1734"
       style="font-size:12px;font-style:normal;font-weight:normal;fill:#000000;fill-opacity:1;stroke:none;font-family:Bitstream Vera Sans"
       sodipodi:nodetypes="ccccccccccccccccccccccccccccccccccccccc"
       inkscape:connector-curvature="0" />
  </g>
</svg>
