<?xml version="1.0" encoding="UTF-8" standalone="no"?>
<!-- Created with Inkscape (http://www.inkscape.org/) -->

<svg
   xmlns:dc="http://purl.org/dc/elements/1.1/"
   xmlns:cc="http://creativecommons.org/ns#"
   xmlns:rdf="http://www.w3.org/1999/02/22-rdf-syntax-ns#"
   xmlns:svg="http://www.w3.org/2000/svg"
   xmlns="http://www.w3.org/2000/svg"
   xmlns:sodipodi="http://sodipodi.sourceforge.net/DTD/sodipodi-0.dtd"
   xmlns:inkscape="http://www.inkscape.org/namespaces/inkscape"
   height="83.398537"
   id="svg1"
   inkscape:version="0.48.4 r9939"
   sodipodi:docname="Anonymous_Chess_symbols_set_8-filled.svg"
   sodipodi:version="0.32"
   width="89.595322"
   inkscape:output_extension="org.inkscape.output.svg.inkscape"
   version="1.0"
   inkscape:export-filename="C:\joanna\Gfx\drawings_vector\admin\thumbs\Igor Krizanovskij\chess_set_symbols_igor_k_01_ok.png"
   inkscape:export-xdpi="51.457458"
   inkscape:export-ydpi="51.457458">
  <metadata
     id="metadata3">
    <rdf:RDF>
      <cc:Work
         rdf:about="">
        <dc:title></dc:title>
        <dc:description />
        <dc:subject>
          <rdf:Bag>
            <rdf:li />
            <rdf:li>game</rdf:li>
            <rdf:li>chess</rdf:li>
            <rdf:li>symbols</rdf:li>
            <rdf:li>board</rdf:li>
            <rdf:li>recreation</rdf:li>
            <rdf:li>fonts</rdf:li>
          </rdf:Bag>
        </dc:subject>
        <dc:publisher>
          <cc:Agent
             rdf:about="http://www.openclipart.org">
            <dc:title>Igor Krizanovskij</dc:title>
          </cc:Agent>
        </dc:publisher>
        <dc:creator>
          <cc:Agent>
            <dc:title>Igor Krizanovskij</dc:title>
          </cc:Agent>
        </dc:creator>
        <dc:rights>
          <cc:Agent>
            <dc:title>Igor Krizanovskij</dc:title>
          </cc:Agent>
        </dc:rights>
        <dc:date />
        <dc:format>image/svg+xml</dc:format>
        <dc:type
           rdf:resource="http://purl.org/dc/dcmitype/StillImage" />
        <cc:license
           rdf:resource="http://web.resource.org/cc/PublicDomain" />
        <dc:language>en</dc:language>
      </cc:Work>
      <cc:License
         rdf:about="http://web.resource.org/cc/PublicDomain">
        <cc:permits
           rdf:resource="http://web.resource.org/cc/Reproduction" />
        <cc:permits
           rdf:resource="http://web.resource.org/cc/Distribution" />
        <cc:permits
           rdf:resource="http://web.resource.org/cc/DerivativeWorks" />
      </cc:License>
    </rdf:RDF>
  </metadata>
  <defs
     id="defs3">
    <inkscape:perspective
       sodipodi:type="inkscape:persp3d"
       inkscape:vp_x="0 : 187.5 : 1"
       inkscape:vp_y="0 : 1000 : 0"
       inkscape:vp_z="1052.3622 : 187.5 : 1"
       inkscape:persp3d-origin="526.18109 : 125 : 1"
       id="perspective20" />
  </defs>
  <sodipodi:namedview
     bordercolor="#666666"
     borderopacity="1.0"
     id="base"
     inkscape:current-layer="layer2"
     inkscape:cx="33.620978"
     inkscape:cy="40.766246"
     inkscape:pageopacity="0.0"
     inkscape:pageshadow="2"
     inkscape:window-height="778"
     inkscape:window-width="1270"
     inkscape:window-x="2"
     inkscape:window-y="0"
     inkscape:zoom="6.4046505"
     pagecolor="#ffffff"
     showgrid="false"
     inkscape:window-maximized="0" />
  <g
     inkscape:groupmode="layer"
     id="layer2"
     inkscape:label="inner">
    <path
       style="fill:#ffffff;fill-opacity:1;stroke:none"
       d="m 42.875,2.625 c -5.677467,2.4182939 -0.997106,8.586116 -0.6875,12.75 0.883687,9.685107 -1.190145,19.376372 -4,28.59375 C 32.976609,33.367156 26.732164,22.077152 29.125,9.875 28.221726,2.6080145 16.325664,6.1102081 19.5,12.75 c 7.670089,6.207397 5.36837,17.501945 4.6875,26 -2.985128,3.956794 -6.225897,-2.423364 -8.28125,-4.625 -3.802859,-4.380539 -4.588596,-10.222091 -3.625,-15.75 -0.523397,-5.843913 -10.1911557,-5.394617 -10.03125,0.5 -0.8234099,5.240009 7.2105369,5.280195 6.09375,10.59375 1.4169533,7.376866 2.111385,15.474289 5.625,22.09375 3.434704,5.185271 11.142639,10.9518 7.09375,17.90625 -0.744162,2.768568 -4.548964,8.914789 0.75,9.25 14.788103,3.585758 30.728353,3.018704 45.5625,0.34375 2.2096,-0.364892 4.370653,-1.587743 3.09375,-4.125 -1.290602,-4.962545 -5.492006,-10.732287 -0.9375,-15.40625 3.824827,-5.275994 8.887966,-9.723016 9.0625,-16.75 1.982432,-5.565883 1.391821,-12.095953 3.875,-17.375 5.217258,-1.52636 6.879005,-9.750961 1,-11.1875 -4.808671,-1.096448 -7.743641,4.492572 -5.84375,8.625 0.41898,7.073593 -4.752332,13.244783 -9.78125,17.46875 C 63.522889,40.188052 65.499327,33.737318 64.717231,30.719287 64.196323,24.195698 64.95221,16.91719 70.1875,12.59375 72.272425,7.0592614 64.312062,2.9670337 61.03125,7.96875 59.345238,12.971919 62.263781,18.707606 59.8125,23.78125 57.773091,29.429396 56.451552,35.939764 52.46875,40.625 48.168176,40.889099 49.969801,35.065177 48.475375,32.016494 46.610573,23.590728 46.448482,14.804668 49.625,6.71875 49.323076,3.4185139 46.007627,1.0768408 42.875,2.625 z"
       id="path3757"
       inkscape:connector-curvature="0" />
  </g>
  <g
     id="layer1"
     inkscape:groupmode="layer"
     inkscape:label="outer"
     transform="translate(-230.9317,-73.051163)"
     style="display:inline">
    <path
       d="m 254.42788,142.89421 c 0,1.37707 0.98976,2.0656 2.9693,2.0656 l 8.90789,-0.6455 c -1.1e-4,0 2.58189,-0.12911 7.746,-0.3873 l 1.9365,0 15.10468,0.77461 3.0984,0.25819 c 1.9794,0 2.9692,-0.68853 2.9693,-2.0656 -10e-5,-2.49592 -5.76658,-3.87299 -17.2994,-4.13119 l -4.00209,0 c -9.72564,0 -16.22356,0.73158 -19.49409,2.19469 -1.29099,0.51641 -1.93649,1.16191 -1.93649,1.9365 M 238.29039,88.930453 c -1.63528,0 -2.66806,0.81765 -3.0984,2.45291 -0.0861,0.2582 -0.12911,0.51639 -0.12911,0.77461 0,1.63526 0.81765,2.66806 2.45291,3.09838 0.25819,0.08607 0.51639,0.12911 0.7746,0.12911 2.06559,0 3.09839,-1.07584 3.09839,-3.22749 0,-2.15168 -1.0328,-3.22752 -3.09839,-3.22752 m 16.91207,-8.13329 c -2.23772,0 -3.35657,1.07584 -3.35657,3.2275 0,2.15168 1.11885,3.2275 3.35657,3.2275 2.06561,0 3.09841,-1.07582 3.09841,-3.2275 0,-2.15166 -1.0328,-3.2275 -3.09841,-3.2275 m 41.18288,0 c -1.46324,0 -2.45301,0.73158 -2.96929,2.1947 l -0.12911,1.0328 c -1e-4,2.15168 1.0327,3.2275 3.0984,3.2275 2.15155,0 3.22739,-1.07582 3.22749,-3.2275 -10e-5,-2.15166 -1.07594,-3.2275 -3.22749,-3.2275 m 16.78299,8.13329 c -2.06572,0 -3.0985,1.07584 -3.09839,3.22752 -1.1e-4,2.15165 1.03267,3.22749 3.09839,3.22749 2.15156,0 3.22738,-1.07584 3.22751,-3.22749 -1.3e-4,-1.63526 -0.81775,-2.66807 -2.45291,-3.09841 -0.2583,-0.08607 -0.51651,-0.12911 -0.7746,-0.12911 m -9.2952,61.709767 c -1.1e-4,2.40986 -4.43253,4.08816 -13.29727,5.0349 l -12.52271,0.77458 -2.3238,0 c -10.50022,0 -18.50432,-0.90369 -24.01257,-2.71108 -2.66807,-0.77461 -4.0021,-1.80741 -4.0021,-3.0984 0,-2.49593 0.68853,-5.33614 2.0656,-8.5206 0.94673,-1.89347 1.42011,-3.22751 1.42011,-4.00209 0,-1.63526 -1.97954,-4.81975 -5.93861,-9.55339 -2.15166,-2.49594 -3.39962,-4.21728 -3.74389,-5.16402 0,-0.51639 -0.2582,-1.67829 -0.77461,-3.48568 l -1.6783,-6.455 c -1.11885,-4.21727 -1.85042,-8.69271 -2.19469,-13.42639 -3.95906,-1.635257 -5.93859,-4.260287 -5.93859,-7.875077 0,-3.09841 1.42008,-5.2931 4.26029,-6.58409 0.94673,-0.43035 1.97953,-0.64552 3.0984,-0.64552 2.84019,0 4.94883,1.29101 6.32589,3.87301 0.60248,1.11885 0.90371,2.23773 0.90371,3.3566 l -0.6455,4.90579 c 0,3.872987 2.75411,8.606657 8.26239,14.200987 0.43032,-3.52873 0.6455,-7.22959 0.6455,-11.10261 0,-5.766447 -1.0328,-9.424277 -3.0984,-10.973467 -0.17213,-0.17215 -0.34428,-0.30123 -0.51639,-0.3873 -1.54921,-0.94674 -2.3238,-2.62503 -2.3238,-5.0349 0,-3.18446 1.46311,-5.37917 4.38938,-6.5841 0.94675,-0.43033 1.93651,-0.6455 2.96929,-0.6455 3.01234,0 5.16401,1.37708 6.45501,4.13119 0.51639,0.94675 0.77448,1.97953 0.7746,3.09841 l -0.90371,5.55129 c 0,4.81974 2.36673,12.178407 7.10051,22.076087 1.80728,-8.09027 2.711,-14.287047 2.7111,-18.590387 -10e-5,-3.61479 -0.64562,-6.92836 -1.93649,-9.94068 -0.51652,-1.11888 -0.77471,-1.97954 -0.77461,-2.58201 -1e-4,-3.18447 1.41998,-5.37916 4.26029,-6.58411 0.94662,-0.43032 1.93639,-0.6455 2.9693,-0.6455 3.01223,0 5.12084,1.42011 6.32589,4.26032 0.43022,0.94673 0.6454,1.93649 0.6455,2.96929 -1e-4,0.17213 -0.73167,2.4529 -2.19469,6.8423 -0.34439,1.11885 -0.51651,3.01233 -0.51641,5.68039 -10e-5,4.30334 0.90359,10.500117 2.7111,18.590387 4.64749,-9.81161 6.9713,-17.170297 6.9714,-22.076087 l -0.7746,-5.42218 0,-0.12911 c -1.2e-4,-3.18446 1.46303,-5.37917 4.3894,-6.5841 0.94662,-0.43033 1.93639,-0.6455 2.96929,-0.6455 3.01223,0 5.16389,1.37708 6.455,4.13119 0.51629,0.94675 0.77449,1.97953 0.77459,3.09841 -1e-4,2.40987 -0.77471,4.1312 -2.3238,5.16398 -2.40997,1.54922 -3.61489,5.33614 -3.61479,11.360797 -10e-5,3.78694 0.21505,7.44477 0.6455,10.9735 5.50814,-5.59433 8.26228,-10.328 8.26239,-14.200987 l -0.6455,-4.90579 c -1e-4,-3.01234 1.37697,-5.16401 4.13121,-6.45501 0.94662,-0.51639 1.97942,-0.7746 3.09839,-0.7746 3.0983,0 5.29299,1.37706 6.58409,4.1312 l 0.7746,2.45291 0,0.6455 c -10e-5,3.44264 -1.97964,6.06767 -5.93859,7.875077 -0.51651,5.9386 -1.97964,13.21123 -4.3894,21.81788 -0.17223,0.68854 -0.25831,1.20493 -0.2582,1.54919 -1.1e-4,0.60247 -0.64561,1.59224 -1.9365,2.96931 l -1.54919,1.93649 c -4.13131,4.73367 -6.19691,8.0042 -6.19681,9.81161 -10e-5,0.51639 1.0327,3.18446 3.09841,8.00419 0.34417,1.72132 0.51628,3.2275 0.51639,4.5185 M 275.85846,76.795073 c -1.63538,0 -2.66818,0.81764 -3.09841,2.4529 -0.0862,0.2582 -0.12919,0.51639 -0.12908,0.77459 -1.1e-4,1.63527 0.81751,2.66807 2.45288,3.09841 0.25809,0.08607 0.51631,0.12911 0.77461,0.12911 2.0655,0 3.09828,-1.07584 3.0984,-3.22752 -1.2e-4,-1.54919 -0.73167,-2.582 -2.19471,-3.09839 -0.2583,-0.08606 -0.55953,-0.1291 -0.90369,-0.1291 m 23.23798,50.348967 c -10e-5,-2.75414 -7.7461,-4.13122 -23.23798,-4.13122 -15.57806,0 -23.36708,1.42011 -23.36708,4.26032 0,1.20492 1.11885,1.80739 3.35658,1.80739 2.58202,0 5.80951,-0.21516 9.68251,-0.6455 l 8.39149,-0.25819 2.06561,0 c 2.40974,0 6.97126,0.21515 13.68458,0.6455 l 6.32589,0.25819 c 2.0655,0 3.0983,-0.6455 3.0984,-1.93649"
       id="path1742"
       style="font-size:12px;font-style:normal;font-weight:normal;fill:#000000;fill-opacity:1;stroke:none;font-family:Bitstream Vera Sans"
       inkscape:connector-curvature="0" />
  </g>
</svg>
