<?xml version="1.0" encoding="UTF-8" standalone="no"?>
<!-- Created with Inkscape (http://www.inkscape.org/) -->

<svg
   xmlns:dc="http://purl.org/dc/elements/1.1/"
   xmlns:cc="http://creativecommons.org/ns#"
   xmlns:rdf="http://www.w3.org/1999/02/22-rdf-syntax-ns#"
   xmlns:svg="http://www.w3.org/2000/svg"
   xmlns="http://www.w3.org/2000/svg"
   xmlns:sodipodi="http://sodipodi.sourceforge.net/DTD/sodipodi-0.dtd"
   xmlns:inkscape="http://www.inkscape.org/namespaces/inkscape"
   height="76.300003"
   id="svg1"
   inkscape:version="0.48.4 r9939"
   sodipodi:docname="Anonymous_Chess_symbols_set_11-filled.svg"
   sodipodi:version="0.32"
   width="77.07"
   inkscape:output_extension="org.inkscape.output.svg.inkscape"
   version="1.0"
   inkscape:export-filename="C:\joanna\Gfx\drawings_vector\admin\thumbs\Igor Krizanovskij\chess_set_symbols_igor_k_01_ok.png"
   inkscape:export-xdpi="51.457458"
   inkscape:export-ydpi="51.457458">
  <metadata
     id="metadata3">
    <rdf:RDF>
      <cc:Work
         rdf:about="">
        <dc:title></dc:title>
        <dc:description />
        <dc:subject>
          <rdf:Bag>
            <rdf:li />
            <rdf:li>game</rdf:li>
            <rdf:li>chess</rdf:li>
            <rdf:li>symbols</rdf:li>
            <rdf:li>board</rdf:li>
            <rdf:li>recreation</rdf:li>
            <rdf:li>fonts</rdf:li>
          </rdf:Bag>
        </dc:subject>
        <dc:publisher>
          <cc:Agent
             rdf:about="http://www.openclipart.org">
            <dc:title>Igor Krizanovskij</dc:title>
          </cc:Agent>
        </dc:publisher>
        <dc:creator>
          <cc:Agent>
            <dc:title>Igor Krizanovskij</dc:title>
          </cc:Agent>
        </dc:creator>
        <dc:rights>
          <cc:Agent>
            <dc:title>Igor Krizanovskij</dc:title>
          </cc:Agent>
        </dc:rights>
        <dc:date />
        <dc:format>image/svg+xml</dc:format>
        <dc:type
           rdf:resource="http://purl.org/dc/dcmitype/StillImage" />
        <cc:license
           rdf:resource="http://web.resource.org/cc/PublicDomain" />
        <dc:language>en</dc:language>
      </cc:Work>
      <cc:License
         rdf:about="http://web.resource.org/cc/PublicDomain">
        <cc:permits
           rdf:resource="http://web.resource.org/cc/Reproduction" />
        <cc:permits
           rdf:resource="http://web.resource.org/cc/Distribution" />
        <cc:permits
           rdf:resource="http://web.resource.org/cc/DerivativeWorks" />
      </cc:License>
    </rdf:RDF>
  </metadata>
  <defs
     id="defs3">
    <inkscape:perspective
       sodipodi:type="inkscape:persp3d"
       inkscape:vp_x="0 : 187.5 : 1"
       inkscape:vp_y="0 : 1000 : 0"
       inkscape:vp_z="1052.3622 : 187.5 : 1"
       inkscape:persp3d-origin="526.18109 : 125 : 1"
       id="perspective20" />
    <inkscape:perspective
       id="perspective20-4"
       inkscape:persp3d-origin="526.18109 : 125 : 1"
       inkscape:vp_z="1052.3622 : 187.5 : 1"
       inkscape:vp_y="0 : 1000 : 0"
       inkscape:vp_x="0 : 187.5 : 1"
       sodipodi:type="inkscape:persp3d" />
  </defs>
  <sodipodi:namedview
     bordercolor="#666666"
     borderopacity="1.0"
     id="base"
     inkscape:current-layer="layer2"
     inkscape:cx="43.675012"
     inkscape:cy="35.08706"
     inkscape:pageopacity="0.0"
     inkscape:pageshadow="2"
     inkscape:window-height="853"
     inkscape:window-width="1440"
     inkscape:window-x="-2"
     inkscape:window-y="-3"
     inkscape:zoom="6.4046506"
     pagecolor="#ffffff"
     showgrid="false"
     inkscape:window-maximized="1" />
  <g
     inkscape:groupmode="layer"
     id="layer2"
     inkscape:label="inner"
     style="display:inline">
    <path
       style="fill:#ffffff;fill-opacity:1;stroke:none"
       d="m 35.3125,2.59375 c -2.217908,2.4224031 -4.593334,7.701107 -8.375,4.25 C 24.412407,5.7181221 19.840532,3.1300643 18,4.65625 19.854559,16.716127 11.345504,26.74651 7.4672952,37.545626 5.8349039,42.098484 2.7275734,46.792225 2.46875,51.53125 4.1863366,55.362275 8.9914468,58.151795 12.875,57.5 c 2.37581,-2.626096 4.415787,-0.01677 4.78125,2.625 3.737402,-2.93222 5.54891,-9.112912 9.8125,-12.1875 3.160036,-1.954425 7.176302,-6.467631 10.9375,-4.46875 1.964888,5.122384 -2.996535,10.440422 -5.628915,14.582996 -3.701856,4.737749 -7.27867,9.944336 -7.964835,16.073254 16.475344,-0.232835 33.797644,0.461774 49.75,-0.34375 1.615561,-20.730628 -2.10831,-44.288774 -19.53125,-57.75 -3.85937,-3.224483 -8.875229,-3.787658 -13.71875,-3.625 -1.40593,-3.5726829 -2.176431,-8.2157683 -6,-9.8125 z"
       id="path3758"
       inkscape:connector-curvature="0" />
  </g>
  <g
     id="layer1"
     inkscape:groupmode="layer"
     inkscape:label="outer"
     transform="translate(-740.92061,-80.020614)"
     style="display:inline">
    <path
       d="m 758.61792,110.20501 c 2.13734,0 4.40294,-1.25221 6.79677,-3.75661 1.28242,-1.29537 1.92362,-2.41805 1.92362,-3.36799 0,-1.12268 -1.02593,-1.68401 -3.07779,-1.68401 -2.39382,0 -4.40294,1.07949 -6.02732,3.23846 -0.85497,1.03631 -1.28241,2.11579 -1.28241,3.23847 0,1.55445 0.5557,2.33168 1.66713,2.33168 m -2.18011,-28.368864 c 0.171,0 0.59845,-0.04319 1.28241,-0.129548 3.84725,0 7.95096,1.295403 12.31116,3.886159 0.51296,0.345439 0.76946,0.518143 0.76946,0.518143 2.47932,-4.058863 4.36019,-6.08829 5.6426,-6.08829 2.73581,1.55446 4.53121,3.238458 5.38613,5.051984 0.42748,0.863602 1.06869,2.677118 1.92362,5.440609 0.68396,-0.172735 1.36791,-0.259067 2.05187,-0.259067 7.1815,0 14.02102,4.447469 20.5186,13.342434 7.77997,10.2767 11.66995,24.2668 11.66995,41.97036 0,3.97251 -0.17099,7.55639 -0.51296,10.75168 l -54.11782,0 c 0.17101,-5.78605 2.26559,-11.26982 6.28383,-16.45137 0.42748,-0.69086 1.02593,-1.46808 1.79538,-2.33167 3.16329,-4.05886 5.0869,-7.16778 5.77086,-9.32676 0.34197,-1.12265 0.59845,-2.28851 0.76944,-3.49753 -5.64261,2.24533 -9.87458,5.57015 -12.69589,9.97445 -1.28241,2.15896 -2.69305,4.40431 -4.23196,6.73598 -0.42748,0.69088 -1.06869,1.03632 -1.92361,1.03632 -2.13735,0 -3.20602,-1.33856 -3.20602,-4.01569 -0.85497,1.12266 -1.83815,1.684 -2.94955,1.684 0,0 -0.85496,-0.21591 -2.56483,-0.64769 -3.67625,-0.94996 -6.28382,-2.59078 -7.82273,-4.92247 -0.51296,-0.77722 -1.06867,-1.81352 -1.66714,-3.10889 0.59847,-3.71345 3.54802,-11.09712 8.84866,-22.15106 3.84724,-7.94501 6.24108,-13.644691 7.18152,-17.099029 0.0855,-0.77723 0.12823,-1.899879 0.12823,-3.367996 0,-1.209021 -0.21374,-3.5407 -0.64121,-6.995059 m -7.69447,45.467904 c -2.05186,0 -3.41977,0.90676 -4.10372,2.7203 -0.17099,0.43179 -0.25648,0.86359 -0.25648,1.29539 0,0.34543 0.12823,0.77723 0.38472,1.29537 2.22285,0 3.59076,-0.94994 4.10371,-2.84982 0.0855,-0.25908 0.12825,-0.56135 0.12825,-0.90677 0,-0.17273 -0.0855,-0.69087 -0.25648,-1.55447 m 62.96643,19.94889 0,-4.79291 c 0,-14.0765 -3.54799,-25.60539 -10.644,-34.5867 -6.1556,-7.77231 -11.75546,-11.658442 -16.7996,-11.658442 0,0 -0.51298,-0.08636 -1.53891,-0.259076 -0.17098,0.08635 -0.29923,0.172714 -0.38473,0.259076 -1.11141,0 -1.66712,0.474968 -1.66712,1.424902 0,0.345449 0.25649,0.77724 0.76944,1.295403 4.61668,0.431781 9.66084,3.756587 15.13247,9.974447 6.92502,8.11771 10.38755,19.86252 10.38755,35.23436 0,0 0,0.2591 0,0.77724 0,3.7998 0.81218,5.69969 2.43656,5.69969 1.36792,0 2.13738,-1.12267 2.30834,-3.36799"
       id="path1726"
       style="font-size:12px;font-style:normal;font-weight:normal;fill:#000000;fill-opacity:1;stroke:none;font-family:Bitstream Vera Sans"
       inkscape:connector-curvature="0" />
  </g>
</svg>
